<?xml version="1.0" encoding="utf-8"?>
<!-- Generator: Adobe Illustrator 16.0.0, SVG Export Plug-In . SVG Version: 6.00 Build 0)  -->
<!DOCTYPE svg PUBLIC "-//W3C//DTD SVG 1.1//EN" "http://www.w3.org/Graphics/SVG/1.1/DTD/svg11.dtd">
<svg version="1.1" xmlns="http://www.w3.org/2000/svg" xmlns:xlink="http://www.w3.org/1999/xlink" x="0px" y="0px" width="39px"
	 height="34px" viewBox="0 0 39 34" enable-background="new 0 0 39 34" xml:space="preserve">
<g id="Design">
</g>
<g id="Icons">
	<g id="bulb_2_">
		<path fill="#FFFFFF" d="M16.732,1c-6.075,0-11,4.925-11,11c0,4.031,3.688,8.303,5.031,12.055C12.767,29.651,12.545,33,16.732,33
			c4.25,0,3.965-3.334,5.969-8.922C24.049,20.318,27.732,16,27.732,12C27.732,5.925,22.808,1,16.732,1z M19.325,28.176l-4.959,0.62
			c-0.177-0.513-0.367-1.112-0.598-1.894c-0.003-0.01-0.007-0.021-0.009-0.031l6.188-0.773c-0.088,0.296-0.183,0.606-0.264,0.884
			C19.554,27.431,19.436,27.821,19.325,28.176z M13.469,25.908c-0.182-0.602-0.387-1.236-0.615-1.908h7.766
			c-0.122,0.359-0.245,0.719-0.352,1.059L13.469,25.908z M16.732,31c-1.013,0-1.479-0.116-1.997-1.25l4.238-0.53
			C18.36,30.873,17.913,31,16.732,31z M21.404,22h-9.333c-0.498-1.079-1.096-2.16-1.686-3.217C9.081,16.448,7.732,14.033,7.732,12
			c0-4.963,4.037-9,9-9s9,4.037,9,9c0,2.018-1.35,4.446-2.655,6.795C22.492,19.849,21.899,20.926,21.404,22z"/>
		<path fill="#FFFFFF" d="M16.732,6c-3.309,0-6,2.691-6,6c0,0.276,0.224,0.5,0.5,0.5s0.5-0.224,0.5-0.5c0-2.757,2.243-5,5-5
			c0.276,0,0.5-0.224,0.5-0.5S17.009,6,16.732,6z"/>
	</g>
</g>
</svg>
