<?xml version="1.0" encoding="utf-8"?>
<!-- Generator: Adobe Illustrator 16.0.0, SVG Export Plug-In . SVG Version: 6.00 Build 0)  -->
<!DOCTYPE svg PUBLIC "-//W3C//DTD SVG 1.1//EN" "http://www.w3.org/Graphics/SVG/1.1/DTD/svg11.dtd">
<svg version="1.1" xmlns="http://www.w3.org/2000/svg" xmlns:xlink="http://www.w3.org/1999/xlink" x="0px" y="0px" width="39px"
	 height="34px" viewBox="0 0 39 34" enable-background="new 0 0 39 34" xml:space="preserve">
<g id="Design">
</g>
<g id="Icons">
	<g id="camera_3_">
		<path fill="#FFFFFF" d="M19.941,8.767c-4.693,0-8.494,3.802-8.494,8.494s3.801,8.494,8.494,8.494c4.69,0,8.493-3.802,8.493-8.494
			S24.632,8.767,19.941,8.767z M24.777,21.407c-2.29,2.672-6.311,2.979-8.981,0.691c-2.673-2.29-2.98-6.312-0.69-8.982
			c2.287-2.672,6.31-2.98,8.98-0.69C26.758,14.713,27.066,18.735,24.777,21.407z"/>
		<path fill="#FFFFFF" d="M19.941,13.014c-2.346,0-4.247,1.902-4.247,4.246v0.001c0,0.293,0.236,0.531,0.53,0.531
			c0.293,0,0.531-0.237,0.531-0.531V17.26c0-1.759,1.425-3.184,3.186-3.184c0.292,0,0.53-0.238,0.53-0.531
			S20.233,13.014,19.941,13.014z"/>
		<path fill="#FFFFFF" d="M34.267,7.748L29.665,6.98l-1.458-3.646c-0.487-1.216-1.648-2.001-2.957-2.001H14.633
			c-1.309,0-2.471,0.785-2.96,2.002L10.218,6.98L5.616,7.748C4.073,8.004,2.953,9.325,2.953,10.89v15.925
			C2.953,28.571,4.382,30,6.139,30h27.605c1.756,0,3.185-1.429,3.185-3.185V10.89C36.929,9.325,35.809,8.004,34.267,7.748z
			 M34.806,26.815c0,0.587-0.476,1.062-1.062,1.062H6.139c-0.587,0-1.062-0.475-1.062-1.062V10.89c0-0.52,0.376-0.962,0.888-1.047
			l5.779-0.963l1.902-4.754c0.161-0.403,0.552-0.667,0.987-0.667H25.25c0.434,0,0.823,0.264,0.984,0.667l1.902,4.754l5.781,0.963
			c0.512,0.085,0.888,0.528,0.888,1.047V26.815z"/>
	</g>
</g>
</svg>
