<?xml version="1.0" encoding="utf-8"?>
<!-- Generator: Adobe Illustrator 16.0.0, SVG Export Plug-In . SVG Version: 6.00 Build 0)  -->
<!DOCTYPE svg PUBLIC "-//W3C//DTD SVG 1.1//EN" "http://www.w3.org/Graphics/SVG/1.1/DTD/svg11.dtd">
<svg version="1.1" xmlns="http://www.w3.org/2000/svg" xmlns:xlink="http://www.w3.org/1999/xlink" x="0px" y="0px" width="39px"
	 height="34px" viewBox="0 0 39 34" enable-background="new 0 0 39 34" xml:space="preserve">
<g id="Design">
</g>
<g id="Icons">
	<g id="camera_3_">
		<path fill-rule="evenodd" clip-rule="evenodd" fill="#333333" d="M18.988,8.767c-4.693,0-8.494,3.802-8.494,8.494
			s3.801,8.494,8.494,8.494c4.69,0,8.493-3.802,8.493-8.494S23.679,8.767,18.988,8.767z M23.824,21.407
			c-2.29,2.672-6.311,2.979-8.981,0.691c-2.673-2.29-2.98-6.312-0.69-8.982c2.287-2.672,6.31-2.98,8.98-0.69
			C25.805,14.713,26.113,18.735,23.824,21.407z"/>
		<path fill-rule="evenodd" clip-rule="evenodd" fill="#333333" d="M18.988,13.014c-2.346,0-4.247,1.902-4.247,4.246v0.001
			c0,0.293,0.236,0.531,0.53,0.531c0.293,0,0.531-0.237,0.531-0.531V17.26c0-1.759,1.425-3.184,3.186-3.184
			c0.292,0,0.53-0.238,0.53-0.531S19.28,13.014,18.988,13.014z"/>
		<path fill-rule="evenodd" clip-rule="evenodd" fill="#333333" d="M33.313,7.748L28.712,6.98l-1.458-3.646
			c-0.487-1.216-1.648-2.001-2.957-2.001H13.68c-1.309,0-2.471,0.785-2.96,2.002L9.265,6.98L4.663,7.748C3.12,8.004,2,9.325,2,10.89
			v15.925C2,28.571,3.429,30,5.186,30h27.605c1.756,0,3.185-1.429,3.185-3.185V10.89C35.976,9.325,34.855,8.004,33.313,7.748z
			 M33.853,26.815c0,0.587-0.476,1.062-1.062,1.062H5.186c-0.587,0-1.062-0.475-1.062-1.062V10.89c0-0.52,0.376-0.962,0.888-1.047
			l5.779-0.963l1.902-4.754c0.161-0.403,0.552-0.667,0.987-0.667h10.617c0.434,0,0.823,0.264,0.984,0.667l1.902,4.754l5.781,0.963
			c0.512,0.085,0.888,0.528,0.888,1.047V26.815z"/>
	</g>
</g>
</svg>
