<?xml version="1.0" encoding="utf-8"?>
<!-- Generator: Adobe Illustrator 16.0.0, SVG Export Plug-In . SVG Version: 6.00 Build 0)  -->
<!DOCTYPE svg PUBLIC "-//W3C//DTD SVG 1.1//EN" "http://www.w3.org/Graphics/SVG/1.1/DTD/svg11.dtd">
<svg version="1.1" xmlns="http://www.w3.org/2000/svg" xmlns:xlink="http://www.w3.org/1999/xlink" x="0px" y="0px" width="39px"
	 height="34px" viewBox="0 0 39 34" enable-background="new 0 0 39 34" xml:space="preserve">
<g id="Design">
</g>
<g id="Icons">
	<g id="tag_3_">
		<path fill="#FFFFFF" d="M36.327,13.91l-5.521-8.833C30,3.786,28.584,3,27.062,3H6.083C3.644,3,1.666,4.978,1.666,7.417v17.667
			c0,2.439,1.978,4.417,4.417,4.417h20.979c1.522,0,2.938-0.785,3.745-2.076l5.521-8.833C37.224,17.159,37.224,15.342,36.327,13.91z
			 M34.455,17.42l-5.521,8.834c-0.405,0.649-1.105,1.037-1.872,1.037H6.083c-1.218,0-2.209-0.991-2.209-2.208V7.417
			c0-1.217,0.991-2.208,2.209-2.208h20.979c0.767,0,1.467,0.388,1.872,1.037l5.521,8.833C34.899,15.791,34.899,16.709,34.455,17.42z
			"/>
		<path fill="#FFFFFF" d="M27.062,12.938c-1.829,0-3.312,1.483-3.312,3.312s1.483,3.312,3.312,3.312c1.83,0,3.312-1.483,3.312-3.312
			S28.892,12.938,27.062,12.938z M27.062,18.459c-1.22,0-2.208-0.989-2.208-2.208s0.988-2.208,2.208-2.208
			c1.221,0,2.209,0.989,2.209,2.208S28.282,18.459,27.062,18.459z"/>
	</g>
</g>
</svg>
