<?xml version="1.0" encoding="utf-8"?>
<!-- Generator: Adobe Illustrator 16.0.0, SVG Export Plug-In . SVG Version: 6.00 Build 0)  -->
<!DOCTYPE svg PUBLIC "-//W3C//DTD SVG 1.1//EN" "http://www.w3.org/Graphics/SVG/1.1/DTD/svg11.dtd">
<svg version="1.1" id="Layer_1" xmlns="http://www.w3.org/2000/svg" xmlns:xlink="http://www.w3.org/1999/xlink" x="0px" y="0px"
	 width="39px" height="34px" viewBox="0 0 39 34" enable-background="new 0 0 39 34" xml:space="preserve">
<g id="Design">
</g>
<g id="Icons">
	<g id="camera_3_">
		<path fill="#BFBFBF" d="M18.988,8.767c-4.693,0-8.494,3.802-8.494,8.494c0,4.692,3.801,8.494,8.494,8.494
			c4.69,0,8.493-3.802,8.493-8.494C27.48,12.569,23.68,8.767,18.988,8.767z M23.824,21.407c-2.29,2.672-6.311,2.979-8.981,0.69
			c-2.673-2.289-2.98-6.312-0.69-8.981c2.287-2.672,6.31-2.98,8.98-0.69C25.805,14.713,26.113,18.734,23.824,21.407z"/>
		<path fill="#BFBFBF" d="M18.988,13.014c-2.346,0-4.247,1.902-4.247,4.246v0.001c0,0.294,0.236,0.531,0.53,0.531
			c0.293,0,0.531-0.237,0.531-0.531V17.26c0-1.759,1.425-3.184,3.186-3.184c0.292,0,0.53-0.238,0.53-0.531
			S19.28,13.014,18.988,13.014z"/>
		<path fill="#BFBFBF" d="M33.312,7.748L28.712,6.98l-1.458-3.646c-0.486-1.216-1.648-2.001-2.957-2.001H13.68
			c-1.309,0-2.471,0.785-2.96,2.002L9.265,6.98L4.663,7.748C3.12,8.004,2,9.325,2,10.89v15.924C2,28.57,3.429,30,5.186,30h27.605
			c1.756,0,3.186-1.43,3.186-3.186V10.89C35.977,9.325,34.855,8.004,33.312,7.748z M33.854,26.814c0,0.588-0.477,1.062-1.062,1.062
			H5.186c-0.587,0-1.062-0.475-1.062-1.062V10.89c0-0.52,0.376-0.962,0.888-1.047l5.779-0.963l1.902-4.754
			c0.161-0.403,0.552-0.667,0.987-0.667h10.617c0.434,0,0.823,0.264,0.984,0.667l1.902,4.754l5.78,0.963
			c0.513,0.085,0.888,0.528,0.888,1.047v15.924H33.854z"/>
	</g>
</g>
</svg>
