<?xml version="1.0" encoding="utf-8"?>
<!-- Generator: Adobe Illustrator 16.0.0, SVG Export Plug-In . SVG Version: 6.00 Build 0)  -->
<!DOCTYPE svg PUBLIC "-//W3C//DTD SVG 1.1//EN" "http://www.w3.org/Graphics/SVG/1.1/DTD/svg11.dtd">
<svg version="1.1" xmlns="http://www.w3.org/2000/svg" xmlns:xlink="http://www.w3.org/1999/xlink" x="0px" y="0px" width="39px"
	 height="34px" viewBox="0 0 39 34" enable-background="new 0 0 39 34" xml:space="preserve">
<g id="Design">
</g>
<g id="Icons">
	<g id="tag_3_">
		<path fill-rule="evenodd" clip-rule="evenodd" fill="#333333" d="M37.327,13.409l-5.521-8.833C31,3.285,29.584,2.5,28.062,2.5
			H7.083c-2.439,0-4.417,1.978-4.417,4.417v17.667C2.666,27.022,4.644,29,7.083,29h20.979c1.522,0,2.938-0.785,3.745-2.076
			l5.521-8.833C38.224,16.659,38.224,14.841,37.327,13.409z M35.455,16.92l-5.521,8.834c-0.405,0.649-1.105,1.037-1.872,1.037H7.083
			c-1.218,0-2.209-0.991-2.209-2.208V6.917c0-1.217,0.991-2.208,2.209-2.208h20.979c0.767,0,1.467,0.388,1.872,1.037l5.521,8.833
			C35.899,15.291,35.899,16.209,35.455,16.92z"/>
		<path fill-rule="evenodd" clip-rule="evenodd" fill="#333333" d="M28.062,12.438c-1.829,0-3.312,1.483-3.312,3.312
			s1.483,3.312,3.312,3.312c1.83,0,3.312-1.483,3.312-3.312S29.892,12.438,28.062,12.438z M28.062,17.958
			c-1.22,0-2.208-0.989-2.208-2.208s0.988-2.208,2.208-2.208c1.221,0,2.209,0.989,2.209,2.208S29.282,17.958,28.062,17.958z"/>
	</g>
</g>
</svg>
