<?xml version="1.0" encoding="utf-8"?>
<!-- Generator: Adobe Illustrator 16.0.0, SVG Export Plug-In . SVG Version: 6.00 Build 0)  -->
<!DOCTYPE svg PUBLIC "-//W3C//DTD SVG 1.1//EN" "http://www.w3.org/Graphics/SVG/1.1/DTD/svg11.dtd">
<svg version="1.1" xmlns="http://www.w3.org/2000/svg" xmlns:xlink="http://www.w3.org/1999/xlink" x="0px" y="0px" width="39px"
	 height="34px" viewBox="0 0 39 34" enable-background="new 0 0 39 34" xml:space="preserve">
<g id="Design">
</g>
<g id="Icons">
	<g id="eye_3_">
		<path fill="#FFFFFF" d="M37.646,15.914c-0.012-0.047-0.005-0.097-0.022-0.143c-0.007-0.019-0.023-0.029-0.03-0.047
			c-0.012-0.027-0.009-0.057-0.023-0.083C34.329,9.442,27.279,5,19.842,5S5.354,9.435,2.114,15.633
			c-0.014,0.026-0.012,0.056-0.022,0.083c-0.008,0.017-0.024,0.028-0.03,0.047c-0.018,0.045-0.012,0.096-0.022,0.143
			C2.02,15.99,2,16.07,2,16.156c0,0.085,0.02,0.166,0.039,0.25c0.011,0.047,0.005,0.097,0.022,0.143
			c0.006,0.019,0.022,0.029,0.03,0.047c0.011,0.027,0.009,0.057,0.022,0.083c3.24,6.199,10.29,10.641,17.728,10.641
			s14.487-4.434,17.728-10.633c0.015-0.026,0.012-0.056,0.023-0.083c0.007-0.017,0.023-0.028,0.03-0.047
			c0.018-0.045,0.011-0.096,0.022-0.143c0.019-0.084,0.038-0.165,0.038-0.25C37.684,16.078,37.664,15.998,37.646,15.914z
			 M19.842,25.085c-6.27,0-12.408-3.565-15.468-8.929c3.075-5.371,9.206-8.923,15.468-8.923c6.27,0,12.409,3.565,15.468,8.929
			C32.234,21.533,26.104,25.085,19.842,25.085z"/>
		<path fill="#FFFFFF" d="M19.842,11.695c-0.002,0-0.004,0.001-0.006,0.001c-2.462,0.004-4.458,2-4.458,4.462
			c0,0.309,0.25,0.559,0.559,0.559c0.308,0,0.558-0.25,0.558-0.559c0-1.845,1.502-3.347,3.348-3.347v-0.001
			c0.308,0,0.558-0.25,0.558-0.557C20.399,11.945,20.149,11.695,19.842,11.695z"/>
		<path fill="#FFFFFF" d="M19.815,8.346c-4.317,0-7.817,3.5-7.817,7.817c0,4.318,3.5,7.817,7.817,7.817
			c4.318,0,7.817-3.5,7.817-7.817C27.633,11.846,24.134,8.346,19.815,8.346z M19.815,22.864c-3.694,0-6.7-3.006-6.7-6.701
			s3.006-6.7,6.7-6.7c3.695,0,6.701,3.005,6.701,6.7S23.511,22.864,19.815,22.864z"/>
	</g>
</g>
</svg>
