<?xml version="1.0" encoding="utf-8"?>
<!-- Generator: Adobe Illustrator 16.0.0, SVG Export Plug-In . SVG Version: 6.00 Build 0)  -->
<!DOCTYPE svg PUBLIC "-//W3C//DTD SVG 1.1//EN" "http://www.w3.org/Graphics/SVG/1.1/DTD/svg11.dtd">
<svg version="1.1" id="Layer_1" xmlns="http://www.w3.org/2000/svg" xmlns:xlink="http://www.w3.org/1999/xlink" x="0px" y="0px"
	 width="39px" height="34px" viewBox="0 0 39 34" enable-background="new 0 0 39 34" xml:space="preserve">
<g id="Design">
</g>
<g id="Icons">
	<g id="bulb_2_">
		<path fill="#BFBFBF" d="M19.113,0c-6.075,0-11,4.925-11,11c0,4.031,3.688,8.303,5.031,12.055C15.147,28.65,14.926,32,19.113,32
			c4.25,0,3.965-3.334,5.969-8.922C26.43,19.318,30.113,15,30.113,11C30.113,4.925,25.188,0,19.113,0z M21.706,27.176l-4.959,0.62
			c-0.177-0.513-0.367-1.112-0.598-1.894c-0.003-0.01-0.007-0.021-0.009-0.031l6.188-0.773c-0.088,0.297-0.184,0.606-0.264,0.885
			C21.936,26.432,21.816,26.82,21.706,27.176z M15.85,24.908c-0.182-0.602-0.387-1.236-0.615-1.908H23
			c-0.122,0.359-0.245,0.719-0.352,1.059L15.85,24.908z M19.113,30c-1.013,0-1.479-0.116-1.997-1.25l4.237-0.53
			C20.741,29.873,20.294,30,19.113,30z M23.785,21h-9.333c-0.498-1.079-1.096-2.16-1.686-3.217c-1.305-2.335-2.653-4.75-2.653-6.783
			c0-4.963,4.037-9,9-9c4.963,0,9,4.037,9,9c0,2.018-1.35,4.446-2.655,6.795C24.873,18.85,24.279,19.926,23.785,21z"/>
		<path fill="#BFBFBF" d="M19.113,5c-3.309,0-6,2.691-6,6c0,0.276,0.224,0.5,0.5,0.5c0.276,0,0.5-0.224,0.5-0.5c0-2.757,2.243-5,5-5
			c0.276,0,0.5-0.224,0.5-0.5S19.39,5,19.113,5z"/>
	</g>
</g>
</svg>
