<?xml version="1.0" encoding="utf-8"?>
<!-- Generator: Adobe Illustrator 16.0.0, SVG Export Plug-In . SVG Version: 6.00 Build 0)  -->
<!DOCTYPE svg PUBLIC "-//W3C//DTD SVG 1.1//EN" "http://www.w3.org/Graphics/SVG/1.1/DTD/svg11.dtd">
<svg version="1.1" id="Layer_1" xmlns="http://www.w3.org/2000/svg" xmlns:xlink="http://www.w3.org/1999/xlink" x="0px" y="0px"
	 width="105.541px" height="25.979px" viewBox="0 0 105.541 25.979" enable-background="new 0 0 105.541 25.979"
	 xml:space="preserve">
<g>
	<path fill="#FFFFFF" d="M4.423,8.706C4.655,8.427,4.934,8.165,5.258,7.92C5.584,7.678,5.938,7.463,6.32,7.277
		c0.383-0.185,0.772-0.335,1.167-0.452C7.881,6.708,8.253,6.65,8.601,6.65c1.091,0,2.061,0.175,2.907,0.523
		c0.849,0.348,1.585,0.975,2.212,1.88c0.813-0.744,1.624-1.329,2.438-1.76c0.813-0.429,1.787-0.644,2.925-0.644
		c0.976,0,1.863,0.147,2.664,0.437c0.802,0.29,1.498,0.702,2.089,1.235c0.593,0.535,1.05,1.184,1.376,1.95
		c0.324,0.766,0.487,1.638,0.487,2.612v11.734h-3.796V13.232c0-1.022-0.215-1.816-0.645-2.385c-0.429-0.568-1.224-0.854-2.385-0.854
		c-0.743,0-1.393,0.164-1.95,0.488c-0.557,0.326-1.103,0.743-1.635,1.254v12.884h-3.797v-11.77c0-0.998-0.262-1.725-0.783-2.176
		c-0.522-0.452-1.248-0.68-2.176-0.68c-0.767,0-1.51,0.153-2.229,0.454c-0.72,0.301-1.347,0.73-1.881,1.288v12.884H0.627V11.386
		c0-0.627-0.041-1.178-0.121-1.654C0.424,9.257,0.256,8.752,0,8.218L3.379,6.65c0.185,0.326,0.348,0.651,0.487,0.975
		C4.006,7.951,4.12,8.31,4.215,8.706H4.423z"/>
	<path fill="#FFFFFF" d="M50.699,7.068V3.307l3.796-0.836v4.597h2.785l-0.975,3.134h-1.811v9.366c0,1.396,0.718,2.092,2.157,2.092
		h0.871v2.994c-0.326,0.115-0.644,0.209-0.957,0.277c-0.313,0.071-0.645,0.105-0.993,0.105c-0.649,0-1.271-0.087-1.861-0.262
		c-0.593-0.174-1.11-0.446-1.55-0.819c-0.441-0.369-0.796-0.853-1.062-1.443c-0.268-0.593-0.4-1.307-0.4-2.142V10.202"/>
	<path fill="#FFFFFF" d="M62.155,0c0.58,0,1.067,0.187,1.463,0.557c0.417,0.418,0.627,0.905,0.627,1.462
		c0,0.604-0.21,1.092-0.627,1.462c-0.396,0.371-0.883,0.557-1.463,0.557c-0.604,0-1.093-0.186-1.463-0.557
		c-0.418-0.371-0.626-0.858-0.626-1.462c0-0.557,0.208-1.044,0.626-1.462C61.062,0.187,61.551,0,62.155,0z M60.344,24.618V7.068
		h3.796v17.55H60.344z"/>
	<path fill="#FFFFFF" d="M72.949,24.618L66.541,7.591l3.448-0.941l4.039,10.691l0.731,2.884l0.696-2.884L79.495,6.65l3.447,0.941
		l-6.406,17.027H72.949z"/>
	<path fill="#FFFFFF" d="M88.966,17.026c0,0.674,0.088,1.295,0.262,1.864c0.174,0.568,0.464,1.056,0.871,1.462
		c0.405,0.407,0.945,0.725,1.619,0.956c0.672,0.233,1.508,0.351,2.507,0.351c0.883,0,1.566-0.128,2.054-0.384
		c0.488-0.255,1.011-0.649,1.568-1.185l3.133,1.29c-0.743,1.251-1.729,2.176-2.96,2.767c-1.229,0.593-2.553,0.889-3.97,0.889
		c-2.901,0-5.107-0.755-6.614-2.263c-1.511-1.51-2.264-3.738-2.264-6.686v-0.385c0-0.301,0-0.591,0-0.869s0.011-0.546,0.033-0.802
		c0.047-1.114,0.303-2.123,0.767-3.029c0.464-0.905,1.08-1.683,1.847-2.334c0.765-0.649,1.647-1.148,2.646-1.496
		s2.054-0.523,3.169-0.523c1.276,0,2.414,0.203,3.412,0.61c0.997,0.407,1.846,0.975,2.542,1.707c0.695,0.73,1.225,1.613,1.585,2.645
		c0.359,1.033,0.539,2.178,0.539,3.432v1.983H88.966z M88.966,13.789h8.949c0-0.557-0.104-1.067-0.313-1.532
		c-0.208-0.465-0.505-0.858-0.888-1.184c-0.384-0.326-0.835-0.58-1.357-0.766s-1.098-0.278-1.724-0.278
		c-0.581,0-1.148,0.069-1.707,0.208c-0.557,0.14-1.056,0.365-1.497,0.678c-0.441,0.314-0.795,0.71-1.062,1.186
		C89.1,12.577,88.966,13.14,88.966,13.789z"/>
	<path fill="#FFFFFF" d="M45.998,11.734c-0.441-1.045-1.058-1.938-1.846-2.681c-0.134-0.128-0.279-0.243-0.422-0.361
		c-0.068-0.024-0.126-0.045-0.168-0.055c-0.449-0.105-0.548-0.109-1.067-0.088c-1.338,0.053-3.294,0.796-3.075,1.573
		c1.047,0.198,1.861,0.627,2.435,1.299c0.812,0.952,1.219,2.192,1.219,3.725v0.696c0,0.836-0.075,1.607-0.226,2.315
		c-0.152,0.709-0.418,1.323-0.802,1.847c-0.383,0.521-0.9,0.93-1.55,1.218c-0.649,0.291-1.484,0.437-2.507,0.437
		c-1.021,0-1.857-0.14-2.507-0.418c-0.65-0.278-1.161-0.674-1.532-1.184c-0.372-0.513-0.627-1.109-0.767-1.794
		c-0.139-0.686-0.209-1.446-0.209-2.281v-0.8c0-1.555,0.396-2.809,1.185-3.761c0.788-0.953,2.065-1.429,3.83-1.429
		c0.107,0,0.207,0.008,0.311,0.011c0.73-0.335,1.926-1.11,1.875-2.584c-0.006-0.147-0.014-0.303-0.075-0.521
		C39.416,6.74,38.703,6.65,37.954,6.65c-1.299,0-2.472,0.215-3.517,0.644c-1.045,0.431-1.938,1.022-2.682,1.776
		c-0.742,0.755-1.318,1.655-1.723,2.699c-0.406,1.045-0.621,2.182-0.645,3.413v0.66c0,1.301,0.187,2.507,0.557,3.621
		c0.371,1.114,0.918,2.084,1.637,2.908c0.719,0.825,1.613,1.474,2.681,1.95c1.069,0.477,2.298,0.714,3.691,0.714
		s2.63-0.237,3.709-0.714s1.99-1.125,2.733-1.95c0.743-0.824,1.307-1.794,1.688-2.908s0.575-2.32,0.575-3.621v-0.73
		C46.66,13.906,46.438,12.778,45.998,11.734z"/>
</g>
</svg>
