<?xml version="1.0" encoding="utf-8"?>
<!-- Generator: Adobe Illustrator 18.0.0, SVG Export Plug-In . SVG Version: 6.00 Build 0)  -->
<!DOCTYPE svg PUBLIC "-//W3C//DTD SVG 1.1//EN" "http://www.w3.org/Graphics/SVG/1.1/DTD/svg11.dtd">
<svg version="1.1" id="Laag_1" xmlns="http://www.w3.org/2000/svg" xmlns:xlink="http://www.w3.org/1999/xlink" x="0px" y="0px"
	 viewBox="0 0 94.7 78" enable-background="new 0 0 94.7 78" xml:space="preserve">
<polygon points="-502.7,165 -489.5,178.2 -502.7,191.5 -511.5,191.5 -501.4,181.4 -521.2,181.4 -521.2,175 -501.5,175 -511.5,164.9 
	"/>
<g>
	<polygon points="-430.2,659.4 -420.8,649.9 -430.2,640.5 -436.5,640.5 -429.3,647.7 -450.5,647.7 -450.5,652.2 -429.3,652.2 
		-436.5,659.4 	"/>
	<polygon points="-443.4,662.4 -452.8,671.9 -443.4,681.3 -437.2,681.3 -444.3,674.1 -423.2,674.1 -423.2,669.6 -444.3,669.6 
		-437.2,662.4 	"/>
</g>
<g>
	<path d="M-526.6,639.7v42.5h42.5v-42.5H-526.6z M-503.1,672.4h-7.6l8.7-8.8h-17.2v-5.6h17.1l-8.7-8.7l7.6,0l11.5,11.5L-503.1,672.4
		z"/>
</g>
<path d="M-306.8,467.3c-0.3,0-0.5-0.2-0.7-0.4l0,0c-0.1-0.3,0-0.6,0.2-0.8l0,0l9.9-9.9h-20.1c-0.2,0-0.4-0.1-0.5-0.2l0,0
	c-0.1-0.1-0.2-0.3-0.2-0.5l0,0v-7.1c0-0.2,0.1-0.4,0.2-0.5l0,0c0.1-0.1,0.3-0.2,0.5-0.2l0,0h20.1l-9.8-9.9c-0.2-0.2-0.3-0.5-0.2-0.8
	l0,0c0.1-0.3,0.4-0.4,0.7-0.4l0,0l9.7,0l0,0.7l0-0.7c0.2,0,0.4,0.1,0.5,0.2l0,0l14.6,14.6c0.1,0.1,0.2,0.3,0.2,0.5l0,0
	c0,0.2-0.1,0.4-0.2,0.5l0,0l-14.6,14.6c-0.1,0.1-0.3,0.2-0.5,0.2l0,0H-306.8L-306.8,467.3z M-316.8,454.8h21.1
	c0.3,0,0.5,0.2,0.7,0.4l0,0c0.1,0.3,0,0.6-0.2,0.8l0,0l-9.9,9.9h7.6l13.9-13.9l-13.9-13.9l-7.7,0l9.8,9.8c0.2,0.2,0.3,0.5,0.2,0.8
	l0,0c-0.1,0.3-0.4,0.4-0.7,0.4l0,0h-21.1V454.8L-316.8,454.8z"/>
<path d="M-355.5,244.9l-11.1-11.1c-0.3-0.3-0.7-0.4-1-0.4l-7.3,0c-0.6,0-1.1,0.4-1.4,0.9c-0.2,0.6-0.1,1.2,0.3,1.6l5.9,5.9l-12.9,0
	c-0.4,0-0.8,0.2-1,0.4c-0.3,0.3-0.4,0.7-0.4,1v5.4c0,0.4,0.2,0.8,0.4,1c0.3,0.3,0.7,0.4,1,0.4h13l-5.9,5.9c-0.4,0.4-0.5,1.1-0.3,1.6
	c0.2,0.6,0.8,0.9,1.4,0.9h7.3c0.4,0,0.8-0.2,1-0.4l11.1-11.1c0.3-0.3,0.4-0.6,0.4-1C-355,245.5-355.2,245.2-355.5,244.9z"/>
<g>
	<path d="M-242.9,384.2c0.7,0,1.2,0.6,1.2,1.2c0,0.7-0.5,1.2-1.2,1.2c-0.7,0-1.2-0.6-1.2-1.2C-244.1,384.8-243.6,384.2-242.9,384.2z
		 M-239.3,384.2c0.7,0,1.2,0.6,1.2,1.2c0,0.7-0.6,1.2-1.2,1.2c-0.7,0-1.2-0.6-1.2-1.2C-240.5,384.8-239.9,384.2-239.3,384.2z
		 M-235.6,384.2c0.7,0,1.2,0.6,1.2,1.2c0,0.7-0.5,1.2-1.2,1.2c-0.7,0-1.2-0.6-1.2-1.2C-236.8,384.8-236.3,384.2-235.6,384.2z
		 M-232,384.2c0.7,0,1.2,0.6,1.2,1.2c0,0.7-0.5,1.2-1.2,1.2c-0.7,0-1.2-0.6-1.2-1.2C-233.2,384.8-232.6,384.2-232,384.2z
		 M-228.3,384.2c0.7,0,1.2,0.6,1.2,1.2c0,0.7-0.6,1.2-1.2,1.2c-0.7,0-1.2-0.6-1.2-1.2C-229.5,384.8-229,384.2-228.3,384.2z
		 M-224.7,384.2c0.7,0,1.2,0.6,1.2,1.2c0,0.7-0.5,1.2-1.2,1.2c-0.7,0-1.2-0.6-1.2-1.2C-225.9,384.8-225.3,384.2-224.7,384.2z
		 M-223.7,375.2c0.7,0,1.2,0.6,1.2,1.2c0,0.7-0.5,1.2-1.2,1.2c-0.7,0-1.2-0.6-1.2-1.2C-224.9,375.8-224.3,375.2-223.7,375.2z
		 M-223.7,395.5c-0.7,0-1.2-0.6-1.2-1.2c0-0.7,0.5-1.2,1.2-1.2c0.7,0,1.2,0.5,1.2,1.2C-222.5,395-223,395.5-223.7,395.5z
		 M-221.6,378.2c0.7,0,1.2,0.6,1.2,1.2c0,0.7-0.5,1.2-1.2,1.2c-0.7,0-1.2-0.6-1.2-1.2C-222.8,378.7-222.2,378.2-221.6,378.2z
		 M-221.6,392.6c-0.7,0-1.2-0.6-1.2-1.2c0-0.7,0.5-1.2,1.2-1.2c0.7,0,1.2,0.5,1.2,1.2C-220.4,392-220.9,392.6-221.6,392.6z
		 M-221,384.2c0.7,0,1.2,0.6,1.2,1.2c0,0.7-0.5,1.2-1.2,1.2c-0.7,0-1.2-0.6-1.2-1.2C-222.2,384.8-221.7,384.2-221,384.2z
		 M-219.5,381.2c0.7,0,1.2,0.6,1.2,1.2c0,0.7-0.5,1.2-1.2,1.2c-0.7,0-1.2-0.6-1.2-1.2C-220.7,381.7-220.2,381.2-219.5,381.2z
		 M-219.5,389.6c-0.7,0-1.2-0.6-1.2-1.2c0-0.7,0.5-1.2,1.2-1.2c0.7,0,1.2,0.6,1.2,1.2C-218.3,389-218.8,389.6-219.5,389.6z
		 M-217.4,384.1c0.7,0,1.2,0.6,1.2,1.2c0,0.7-0.5,1.2-1.2,1.2c-0.7,0-1.2-0.6-1.2-1.2C-218.6,384.7-218.1,384.1-217.4,384.1z"/>
</g>
<polygon points="-386.3,181.6 -386.3,175.4 -363.2,175.4 -373,165.1 -368.9,161.3 -353.2,178.1 -367.7,195.2 -372.4,191.7 
	-363.2,181.6 "/>
<polygon points="-388.2,389.8 -388.2,380.2 -371.4,380.2 -371.5,372.5 -351.3,385.4 -371.3,398.2 -371.3,389.8 "/>
<polygon points="-162.5,249.6 -176,250.5 -176.1,241.8 -162.6,242.2 -165,232.8 -165,232.3 -164.9,231.7 -164.5,231.3 -163.9,231 
	-163.4,231 -162.8,231.2 -143.1,244.3 -142.9,244.4 -142.7,244.6 -142.6,244.9 -142.5,245.2 -142.5,245.8 -142.6,246.1 
	-142.7,246.3 -142.9,246.6 -143.1,246.8 -162.2,260.6 -162.8,260.8 -163.3,260.8 -163.9,260.5 -164.3,260.2 -164.5,259.6 
	-164.5,259 "/>
<polygon points="-560.7,444.7 -563.6,447.2 -560.4,450.3 -582.9,450.3 -585.5,447.1 -595.2,447.1 -591.4,452 -595.2,456.8 
	-585.5,456.8 -582.9,453.6 -560.4,453.6 -563.6,456.7 -560.7,459.2 -553.4,452 "/>
<polyline points="-281,313.4 -295.9,327 -295.9,320.6 -319.1,327.1 -319.1,299.8 -295.9,306.3 -295.9,299.9 -281,313.4 "/>
<polyline points="-490.5,245.9 -504.9,231.5 -515.3,231.5 -504.8,242 -520.3,242 -520.3,249.8 -504.8,249.8 -515.3,260.3 
	-504.9,260.3 -490.5,245.9 "/>
<polyline points="-209.3,178.2 -222.2,165.3 -231.6,165.3 -222.1,174.7 -251.1,174.7 -251.1,181.7 -222.1,181.7 -231.6,191.2 
	-222.2,191.2 -209.3,178.2 "/>
<polyline points="-276.5,245.9 -297.7,231.6 -297.7,239 -323.5,239 -323.5,252.8 -297.7,252.8 -297.7,260.3 -276.5,245.9 "/>
<path d="M-312.4,385.8h23.8l-5.5,5.5c-0.2,0.2-0.2,0.4,0,0.6c0.2,0.2,0.4,0.2,0.6,0l6.1-6.1c0,0,0,0,0,0c0,0,0,0,0,0c0,0,0,0,0,0
	c0,0,0,0,0,0c0,0,0,0,0,0c0,0,0,0,0,0c0,0,0,0,0,0c0,0,0,0,0,0c0,0,0,0,0,0c0,0,0,0,0,0c0,0,0,0,0,0c0,0,0,0,0,0c0,0,0,0,0,0
	c0,0,0,0,0,0c0,0,0,0,0,0c0,0,0,0,0,0c0,0,0,0,0,0c0,0,0,0,0,0c0,0,0,0,0,0c0,0,0,0,0,0c0,0,0,0,0,0c0,0,0,0,0,0c0,0,0,0,0,0
	c0,0,0,0,0,0l-6.1-6.1c-0.1-0.1-0.2-0.1-0.3-0.1c-0.1,0-0.2,0-0.3,0.1c-0.2,0.2-0.2,0.4,0,0.6v0l5.5,5.5h-23.8
	c-0.2,0-0.4,0.2-0.4,0.4C-312.8,385.6-312.6,385.8-312.4,385.8z"/>
<path d="M-177.3,386.5h27.9c-2.2,1.1-4.7,2.8-7.2,5.4c-0.4,0.4-0.4,1.1,0,1.6c0.4,0.4,1.1,0.4,1.6,0c6.3-6.3,11.9-6.9,13.3-7
	c0.1,0,0.2,0,0.2,0c0.2,0,0.3,0,0.3,0c0,0,0,0,0,0c0,0,0,0,0,0c0,0,0,0,0.1,0c0,0,0,0,0,0c0,0,0,0,0.1,0c0,0,0,0,0,0c0,0,0,0,0.1,0
	c0,0,0,0,0,0c0,0,0,0,0.1,0c0,0,0,0,0,0c0,0,0,0,0.1,0c0,0,0,0,0,0c0,0,0,0,0.1,0c0,0,0,0,0,0c0,0,0,0,0.1,0c0,0,0,0,0,0
	c0,0,0,0,0-0.1c0,0,0,0,0,0c0,0,0,0,0-0.1c0,0,0,0,0,0c0,0,0,0,0-0.1c0,0,0,0,0,0c0,0,0,0,0-0.1c0,0,0,0,0,0c0,0,0,0,0-0.1
	c0,0,0,0,0,0c0,0,0,0,0-0.1c0,0,0,0,0,0c0,0,0,0,0-0.1c0,0,0,0,0,0c0,0,0,0,0-0.1c0,0,0,0,0,0c0,0,0,0,0,0c0,0,0,0,0,0c0,0,0,0,0,0
	c0,0,0,0,0-0.1c0,0,0,0,0-0.1c0,0,0,0,0-0.1c0,0,0,0,0-0.1c0,0,0,0,0,0c0,0,0,0,0-0.1c0,0,0,0,0,0c0,0,0,0,0-0.1c0,0,0,0,0,0
	c0,0,0,0,0-0.1c0,0,0,0,0,0c0,0,0,0,0-0.1c0,0,0,0,0,0c0,0,0,0,0-0.1c0,0,0,0,0,0c0,0,0,0,0,0c0,0,0,0,0,0c0,0,0,0-0.1,0
	c0,0,0,0,0,0c0,0,0,0-0.1,0c0,0,0,0,0,0c0,0,0,0-0.1,0c0,0,0,0,0,0c0,0,0,0-0.1,0c0,0,0,0,0,0c0,0,0,0-0.1,0c0,0,0,0,0,0
	c0,0,0,0-0.1,0c0,0,0,0,0,0c0,0,0,0-0.1,0c0,0,0,0,0,0c0,0-0.1,0-0.3,0c0,0,0,0,0,0c-0.1,0-0.1,0-0.2,0c-1.5-0.1-7-0.7-13.3-7
	c-0.2-0.2-0.5-0.3-0.8-0.3c-0.3,0-0.6,0.1-0.8,0.3c-0.4,0.4-0.4,1.1,0,1.6c2.6,2.6,5,4.3,7.2,5.4h-27.9c-0.6,0-1.1,0.5-1.1,1.1
	C-178.4,386-177.9,386.5-177.3,386.5z"/>
<path d="M-222.1,312.3l-13.7-13.7c-0.5-0.5-1.2-0.6-1.8-0.4c-0.6,0.3-1,0.9-1,1.6v27.4c0,0.7,0.4,1.3,1,1.6c0.2,0.1,0.4,0.1,0.6,0.1
	c0.4,0,0.9-0.2,1.2-0.5l13.7-13.7c0.3-0.3,0.5-0.7,0.5-1.2C-221.6,313-221.8,312.6-222.1,312.3z"/>
<path d="M-563.1,383.7l-19.2-19.2c-0.7-0.7-1.7-0.9-2.6-0.5c-0.9,0.4-1.5,1.2-1.5,2.2l10.1,19.2l-10.1,19.2c0,1,0.6,1.8,1.5,2.2
	c0.3,0.1,0.6,0.2,0.9,0.2c0.6,0,1.2-0.2,1.7-0.7l19.2-19.2c0.4-0.4,0.7-1,0.7-1.7C-562.4,384.8-562.6,384.2-563.1,383.7z"/>
<g>
	<path d="M-300,638.4l-22.5,22.5l22.5,22.5l22.5-22.5L-300,638.4z M-299.2,671.6l-2-2l7.2-7.2h-19v-2.8h19l-7.2-7.2l2-2l10.6,10.6
		l-2,2L-299.2,671.6z"/>
</g>
<g>
	<polygon points="-572,298.2 -574.9,301 -564.5,311.4 -591.9,311.4 -591.9,315.5 -564.5,315.5 -574.9,325.9 -572,328.7 
		-559.6,316.3 -556.7,313.4 	"/>
</g>
<path d="M-453.1,248.1h26.3l-8.1,8.1c-0.9,0.9-0.9,2.3,0,3.1c0.9,0.9,2.3,0.9,3.1,0l11.3-11.3l2.2-2.2l-2.2-2.2l-11.3-11.3
	c-0.4-0.4-1-0.6-1.6-0.6c-0.6,0-1.1,0.2-1.6,0.6c-0.9,0.9-0.9,2.3,0,3.1l8.1,8.1h-26.3c-1.2,0-2.2,1-2.2,2.2
	C-455.3,247.1-454.3,248.1-453.1,248.1z"/>
<path d="M-350.3,659.4l-7.6-7.6c-0.3-0.3-0.7-0.4-1.1-0.4c-0.4,0-0.8,0.1-1.1,0.4c-0.6,0.6-0.6,1.5,0,2.1l5.5,5.5h-17.7c0,0,0,0,0,0
	h-12.9l5.5-5.5c0.6-0.6,0.6-1.5,0-2.1c-0.6-0.6-1.5-0.6-2.1,0l-7.6,7.6l-1.5,1.5l1.5,1.5l7.6,7.6c0.3,0.3,0.7,0.4,1.1,0.4
	c0.4,0,0.8-0.1,1.1-0.4c0.6-0.6,0.6-1.5,0-2.1l-5.5-5.5h17.7c0,0,0,0,0,0h12.9l-5.5,5.5c-0.6,0.6-0.6,1.5,0,2.1
	c0.6,0.6,1.5,0.6,2.1,0l7.6-7.6l1.5-1.5L-350.3,659.4z"/>
<g>
	<rect x="-152.6" y="171.4" width="4.5" height="4.5"/>
	<rect x="-152.6" y="180.5" width="4.5" height="4.5"/>
	<rect x="-157.2" y="185" width="4.5" height="4.5"/>
	<rect x="-157.2" y="166.9" width="4.5" height="4.5"/>
	<rect x="-148.1" y="176" width="4.5" height="4.5"/>
	<rect x="-157.5" y="176" width="4.5" height="4.5"/>
	<rect x="-163.4" y="176" width="4.5" height="4.5"/>
	<rect x="-169.2" y="176" width="4.5" height="4.5"/>
	<rect x="-175.1" y="176" width="4.5" height="4.5"/>
</g>
<path d="M-489.6,313.4l-16.6-16.6c2.2,3.9,3.4,7.7,4,11.3h-19v10.7h18.9c-1.1,6.8-4,11.3-4,11.3L-489.6,313.4z"/>
<polygon points="-563.7,174.4 -574.9,165.5 -578.6,170.2 -572.3,175.2 -589.7,175.2 -589.7,181.2 -572.3,181.2 -578.6,186.3 
	-574.9,190.9 -563.7,182 -558.9,178.2 "/>
<polygon points="-242.5,250.4 -238.2,257.9 -226.3,250.9 -217.8,245.9 -226.3,240.9 -238.2,233.9 -242.5,241.4 -234.9,245.9 "/>
<path d="M-557.3,244.8l-13-13c-0.5-0.5-1.1-0.6-1.7-0.3c-0.6,0.2-1,0.8-1,1.5v6.9h-18.7V252h18.7v6.9c0,0.6,0.4,1.2,1,1.5
	c0.2,0.1,0.4,0.1,0.6,0.1c0.4,0,0.8-0.2,1.1-0.5l13-13c0.3-0.3,0.5-0.7,0.5-1.1C-556.9,245.5-557,245.1-557.3,244.8z"/>
<path d="M-423.9,177l-14.2-14.2c-0.5-0.5-1.2-0.6-1.9-0.4c-0.6,0.3-1.1,0.9-1.1,1.6l4.1,9.8h-13.3v8.8h13.3l-4.1,9.8
	c0,0.7,0.4,1.3,1.1,1.6c0.2,0.1,0.4,0.1,0.7,0.1c0.5,0,0.9-0.2,1.2-0.5l14.2-14.2c0.3-0.3,0.5-0.8,0.5-1.2
	C-423.4,177.8-423.6,177.3-423.9,177z"/>
<polygon points="-496.2,379.4 -496.3,379.5 -496.4,379.4 -508.5,367.3 -520.4,367.3 -506.7,381 -502.4,385.4 -502.3,385.5 
	-506.5,389.7 -520.3,403.5 -508.3,403.5 -496.2,391.4 -490.3,385.4 "/>
<g>
	<path d="M-251.4,639.7v42.5h42.5v-42.5H-251.4z M-217.4,666.9l-12.1,12.1h-16.9l13.7-13.7l4.3-4.3l-0.1-0.1l-4.3-4.3l-13.7-13.7
		h16.9l12.1,12.1l0.1,0.1l0.1-0.1l6,6L-217.4,666.9z"/>
</g>
<polygon points="-447.8,363.5 -425.9,385.4 -447.8,407.3 -435.5,385.4 "/>
<polygon points="-485.1,452 -494.1,442.9 -494.1,449.2 -525.6,449.2 -525.6,454.7 -494.1,454.7 -494.1,461 "/>
<path d="M-414.1,452l-10.2-10.2c0,5.3-13.8,6.7-24.2,7.1h-11.1v2.9v0.2v2.9v0.1h14.2c9.8,0.5,21.1,2.1,21.1,6.9v0.1L-414.1,452z"/>
<path d="M-349.7,450.8l-13-13c-0.5-0.5-1.1-0.6-1.7-0.3c-0.6,0.2-1,0.8-1,1.5l1,6.9h-19.7v0c0,0-0.1,0-0.1,0c-3.3,0-6.1,2.7-6.1,6.1
	s2.7,6.1,6.1,6.1c0,0,0.1,0,0.1,0v0h19.7l-1,6.9c0,0.6,0.4,1.2,1,1.5c0.2,0.1,0.4,0.1,0.6,0.1c0.4,0,0.8-0.2,1.1-0.5l13-13
	c0.3-0.3,0.5-0.7,0.5-1.1C-349.3,451.5-349.4,451.1-349.7,450.8z"/>
<path d="M-214,452.1C-213.9,452.1-213.9,452.1-214,452.1c0-0.1,0-0.1,0-0.1c0,0,0,0,0-0.1c0,0,0,0,0-0.1c0,0,0,0,0,0
	c0,0,0-0.1,0-0.1c0,0,0-0.1,0-0.1c0,0,0,0,0-0.1c0,0,0,0-0.1-0.1c0,0,0,0-0.1,0c0,0-0.1,0-0.1,0c0,0,0,0,0,0c0,0-4.1-1.1-8.5-2.5
	c-4.4-1.4-9.2-3.2-10.2-4.3c-0.2-0.2-0.5-0.2-0.7,0c-0.2,0.2-0.2,0.5,0,0.7c1.5,1.5,6.2,3.1,10.6,4.5c1.8,0.6,3.6,1.1,5,1.5h-27.8
	c-0.3,0-0.5,0.2-0.5,0.5c0,0.3,0.2,0.5,0.5,0.5h27.8c-1.4,0.4-3.2,0.9-5,1.5c-4.5,1.4-9.1,3.1-10.6,4.5c-0.2,0.2-0.2,0.5,0,0.7
	c0.2,0.2,0.5,0.2,0.7,0c1.1-1.1,5.9-2.9,10.2-4.3c4.4-1.4,8.5-2.5,8.5-2.5c0,0,0,0,0,0c0,0,0.1,0,0.1,0c0,0,0,0,0.1,0
	c0,0,0,0,0.1-0.1C-214,452.3-214,452.2-214,452.1C-214,452.2-214,452.2-214,452.1z"/>
<polygon points="-412.6,313.4 -428.1,297.9 -428.1,307.8 -461.1,307.8 -455.4,313.4 -461.1,319.1 -428.1,319.1 -428.1,329 "/>
<path fill="#FFFFFF" d="M2.1,34.4c-0.1,0.1-0.2,0.3-0.3,0.4c-0.1,0.2-0.2,0.3-0.2,0.5c0,0.1-0.1,0.2-0.1,0.3c0,0,0,0.1,0,0.1
	c-0.1,0.2-0.1,0.3-0.2,0.5c0,0.1-0.1,0.3-0.1,0.4c0,0.2-0.1,0.3-0.1,0.5c0,0.1,0,0.3-0.1,0.4c0,0.2,0,0.3,0,0.5c0,0.1,0,0.3,0,0.4
	c0,0.2,0,0.4,0.1,0.5c0,0.1,0,0.3,0.1,0.4c0,0.2,0.1,0.3,0.1,0.5c0,0.1,0.1,0.3,0.1,0.4c0,0.1,0,0.1,0.1,0.2c0,0.1,0.1,0.2,0.2,0.3
	c0.1,0.1,0.1,0.3,0.2,0.4c0.1,0.2,0.2,0.3,0.3,0.5c0.1,0.1,0.2,0.2,0.2,0.3c0.1,0.1,0.2,0.3,0.4,0.4c0.1,0.1,0.1,0.1,0.2,0.2
	l30.5,30.5c2.5,2.5,6.7,2.5,9.2,0c2.5-2.5,2.5-6.7,0-9.2L23.2,44.6h60.4c2.3,0,4.2-1.1,5.4-2.9c0.7-1,1.1-2.3,1.1-3.6
	c0-1.8-0.7-3.4-1.9-4.6c-1.2-1.2-2.8-1.9-4.6-1.9v0H23.2l19.4-19.4c2.5-2.5,2.5-6.7,0-9.2C41.4,1.6,39.7,1,38,1
	c-1.7,0-3.3,0.6-4.6,1.9L2.9,33.4c-0.1,0.1-0.1,0.1-0.2,0.2c-0.1,0.1-0.2,0.3-0.4,0.4C2.3,34.2,2.2,34.3,2.1,34.4z"/>
<path d="M-354.3,313.6c0-0.1,0-0.1,0-0.2c0-0.1,0-0.1,0-0.2c0-0.1,0-0.1,0-0.2c0-0.1,0-0.1-0.1-0.2c0,0,0-0.1-0.1-0.2c0,0,0,0,0,0
	c0,0,0,0,0,0l-8.9-14.1c-0.4-0.7-1.4-0.9-2.1-0.5c-0.7,0.4-0.9,1.4-0.5,2.1h0l7.5,11.8l-2.6,0h-22.6c-0.8,0-1.5,0.7-1.5,1.5
	c0,0.4,0.1,0.7,0.3,0.9c0.3,0.3,0.7,0.6,1.2,0.6l23.9,0h1.2l-7.5,11.8c-0.4,0.7-0.2,1.6,0.5,2.1c0.2,0.2,0.5,0.2,0.8,0.2
	c0.5,0,1-0.2,1.3-0.7h0l8.9-14.1c0,0,0,0,0,0c0,0,0,0,0,0c0,0,0-0.1,0.1-0.2c0-0.1,0.1-0.1,0.1-0.2
	C-354.4,313.8-354.4,313.7-354.3,313.6z"/>
<g>
	<path d="M-505.4,571.3c-10.7,0-19.4,8.7-19.4,19.4s8.7,19.4,19.4,19.4c10.7,0,19.4-8.7,19.4-19.4S-494.6,571.3-505.4,571.3z
		 M-508.6,602v-22.7l11.3,11.3L-508.6,602z"/>
</g>
<g>
	<polygon points="-165,440.6 -165,463.3 -153.6,452 	"/>
</g>
<g>
	<path d="M-568.1,504.3c-2.3-1-4.9-1.5-7.6-1.5c-4.3,0-8.2,1.4-11.4,3.8l-1.9-2.8c-0.1-0.2-0.3-0.2-0.5-0.2c-0.2,0-0.3,0.2-0.4,0.4
		l-1.1,6.5l-0.8,4.6c0,0.1,0,0.3,0.1,0.4c0.1,0.1,0.2,0.2,0.4,0.2c0,0,0,0,0,0l5.1-0.3l5.8-0.4c0.2,0,0.4-0.1,0.4-0.3
		c0.1-0.2,0-0.4-0.1-0.5l-2.4-2.2c2-1.3,4.3-2.1,6.8-2.1c1.8,0,3.4,0.4,5,1c0.1,0.1,0.3,0.1,0.4,0c0.1,0,0.2-0.1,0.3-0.3l2.2-5.6
		C-567.7,504.7-567.8,504.4-568.1,504.3z"/>
	<path d="M-595.4,523.7c0.2,2.5,1,5,2.2,7.4c2,3.8,5.1,6.6,8.7,8.3l-1.5,3c-0.1,0.2-0.1,0.4,0.1,0.5c0.1,0.1,0.3,0.2,0.5,0.1
		l6.3-2.1l4.4-1.5c0.1,0,0.3-0.2,0.3-0.3c0-0.1,0-0.3,0-0.4c0,0,0,0,0,0l-2.7-4.4l-3.1-4.9c-0.1-0.2-0.3-0.3-0.5-0.2
		c-0.2,0-0.3,0.2-0.4,0.4l-0.8,3.2c-2.1-1.1-3.8-2.8-5-5c-0.8-1.6-1.3-3.2-1.4-4.9c0-0.1-0.1-0.3-0.2-0.3c-0.1-0.1-0.2-0.1-0.4-0.1
		l-6,0.7C-595.2,523.2-595.4,523.5-595.4,523.7z"/>
	<path d="M-565.2,538c2.1-1.5,3.9-3.3,5.3-5.6c2.3-3.6,3.2-7.7,2.8-11.7l3.4-0.2c0.2,0,0.4-0.1,0.4-0.3c0.1-0.2,0-0.4-0.1-0.5
		l-4.9-4.4l-3.5-3.1c-0.1-0.1-0.3-0.1-0.4-0.1c-0.1,0-0.3,0.1-0.3,0.2c0,0,0,0,0,0l-2.4,4.5l-2.7,5.1c-0.1,0.2-0.1,0.4,0,0.5
		c0.1,0.2,0.3,0.2,0.5,0.2l3.2-0.9c0.1,2.3-0.5,4.7-1.8,6.9c-0.9,1.5-2.1,2.7-3.5,3.7c-0.1,0.1-0.2,0.2-0.2,0.3c0,0.1,0,0.3,0.1,0.4
		l3.6,4.9C-565.7,538.1-565.4,538.1-565.2,538z"/>
</g>
<path d="M-527.2,513.4c2,3.9,4.7,7.6,8.3,10.6c5.7,4.8,12.5,7.5,19.4,8l-0.6,5.8c0,0.3,0.1,0.7,0.4,0.8c0.3,0.2,0.7,0.1,0.9-0.1
	l8.8-7.3l6.2-5.2c0.2-0.2,0.3-0.4,0.3-0.7c0-0.2-0.1-0.5-0.3-0.6c0,0,0,0,0,0l-7.2-5.4l-8.1-6.1c-0.3-0.2-0.6-0.2-0.9-0.1
	c-0.3,0.2-0.5,0.5-0.4,0.8l0.7,5.7c-4-0.5-8-2.1-11.3-5c-2.3-2-4.1-4.4-5.4-7c-0.1-0.2-0.3-0.4-0.5-0.4c-0.2-0.1-0.5,0-0.7,0.1
	l-9.3,4.9C-527.2,512.4-527.4,512.9-527.2,513.4z"/>
<path d="M-428.9,505.2C-429,505.2-429,505.2-428.9,505.2c-2.4-1.1-4.9-1.6-7.6-1.7c0,0,0,0,0,0c0,0,0,0,0,0c-0.4,0-0.8,0-1.3,0
	c-0.3,0-0.6,0-0.9,0.1c0,0-0.1,0-0.1,0v0c-3.4,0.4-6.5,1.6-9.2,3.5l-1.9-2.8c-0.1-0.2-0.3-0.2-0.5-0.2c-0.2,0-0.3,0.2-0.4,0.4
	l-1.2,6.5l-0.8,4.6c0,0.1,0,0.3,0.1,0.4c0.1,0.1,0.2,0.2,0.4,0.2c0,0,0,0,0,0l5.1-0.3l5.8-0.3c0.2,0,0.4-0.1,0.4-0.3
	c0.1-0.2,0-0.4-0.1-0.5l-2.4-2.3c1.5-1,3.2-1.6,5.1-1.9l0,0.1c0.6-0.1,1.1-0.1,1.7-0.1c6.9,0.1,12.4,5.7,12.3,12.6
	c-0.1,6.9-5.7,12.4-12.6,12.3c-6.9-0.1-12.4-5.7-12.3-12.6c0-0.6,0.1-1.2,0.2-1.8l-6.6-2.5c-0.3,1.3-0.5,2.7-0.5,4.1
	c-0.1,10.7,8.5,19.5,19.2,19.6c10.7,0.1,19.5-8.5,19.6-19.2C-417.3,515.2-422.1,508.3-428.9,505.2z"/>
<polygon points="-148.7,307.1 -150.4,307.1 -176.3,307.1 -176.3,319.8 -150.4,319.8 -148.7,319.8 -142.3,313.4 "/>
<g>
	<polygon points="-358.7,509.2 -362.3,503.6 -365.4,503.6 -376,503.6 -381.2,512.6 -374,516 -368.9,507.2 -367.6,509.2 
		-365.4,512.7 -369.3,514.7 -359.1,516.3 -355.1,507.4 	"/>
	<polygon points="-386.7,520.4 -389.8,526.4 -388.2,529.1 -382.9,538.3 -372.4,538.2 -373.1,530.3 -383.3,530.3 -382.2,528.2 
		-380.3,524.5 -376.7,526.9 -380.4,517.2 -390.1,518.3 	"/>
	<polygon points="-363.4,538.3 -356.7,538.2 -355.1,535.6 -349.4,526.6 -354.3,517.4 -361,521.7 -356.3,530.7 -358.7,530.7 
		-362.8,530.8 -362.4,526.4 -369.2,534.2 -363.8,542.3 	"/>
</g>
<path d="M-311.3,521.5L-311.3,521.5L-311.3,521.5c0.2-2.9,2.5-5.1,5.3-5.2v0h0c0.1,0,0.1,0,0.2,0c0.1,0,0.1,0,0.2,0h5.9v-6.1
	c0-0.4,0.3-0.8,0.7-1c0.1-0.1,0.3-0.1,0.4-0.1c0.3,0,0.6,0.1,0.8,0.3l8.8,8.8c0.2,0.2,0.3,0.5,0.3,0.8c0,0.3-0.1,0.6-0.3,0.8
	l-8.8,8.8c-0.3,0.3-0.8,0.4-1.2,0.2c-0.4-0.2-0.7-0.6-0.7-1v-6.1h-0.5h-5.5h-0.1c-0.1,0-0.1,0.1-0.2,0.1v0.2v5.5v9.4h-5.3v-14.4
	c0-0.2,0-0.4,0-0.6C-311.3,521.7-311.3,521.6-311.3,521.5z"/>
<polygon points="-230.5,507.4 -230.5,513.1 -237.7,513.1 -243,513.1 -244.9,513.1 -244.9,538.5 -237.7,538.5 -237.7,520.3 
	-230.4,520.3 -230.4,526.5 -215.5,517 "/>
<path d="M-146.3,509.7l-1-5.3l-2.4,3.6c-1.8-0.6-3.7-1-5.7-1c-9.5,0-17.2,7.7-17.2,17.2c0,9.5,7.7,17.2,17.2,17.2v-2.3
	c-8.2,0-14.9-6.7-14.9-14.9c0-8.2,6.7-14.9,14.9-14.9c1.5,0,3,0.2,4.4,0.7l-1.9,2.8l5.6-1.1l1.4-0.3L-146.3,509.7z"/>
<g>
	<path d="M-590.6,592.6v-2.5c0,0,2.2-3.3,7.6-4.1c5.4-0.8-0.3-3,8.3-3.7c8.6-0.7,19.9-0.9,20.9,2.6c0,0,0.2,1.9-0.9,1.9
		c-1.1,0-9.9-0.4-10.2-0.2c-0.3,0.2-2.8,1.4-1.6,1.4c1.2,0,2.4,1.3,1.2,2.5c-1.2,1.2-1.2,2-1.2,2s0,0,0,1.6c0,1.6-1.5,2.4-1.5,2.4
		s0.5,0.9-0.9,0.9c-1.3,0-17.9,0-17.9,0S-590.6,595.1-590.6,592.6z"/>
	<path d="M-594,596.3c-0.5-1.5-0.6-2.9-0.6-2.9l0,0c-0.1-0.6-0.1-1.2-0.1-1.7l0,0c0-5.2,3.7-6.6,3.8-6.6l0,0v0l0.5,1.6
		c0,0-0.1,0-0.4,0.2l0,0c-0.2,0.1-0.6,0.4-0.9,0.7l0,0c-0.7,0.7-1.4,1.9-1.4,4.2l0,0c0,0.4,0,0.9,0.1,1.5l0,0c0,0,0.1,1.3,0.5,2.5
		l0,0c0.5,1.3,1.1,2.2,2.1,2.2l0,0v1.6C-592.5,599.5-593.5,597.7-594,596.3L-594,596.3z"/>
</g>
<path d="M-436.8,571.3c-10.7,0-19.4,8.7-19.4,19.4c0,10.7,8.7,19.4,19.4,19.4c10.7,0,19.4-8.7,19.4-19.4
	C-417.4,580-426.1,571.3-436.8,571.3z M-434.7,601.3h-7l8-8h-15.8v-5.1h15.7l-8-8l7,0l10.6,10.6L-434.7,601.3z"/>
<g>
	<path d="M-149.3,591.6c0,0,0-0.1,0.1-0.1c0,0,0-0.1,0.1-0.1c0,0,0,0,0-0.1c0,0,0,0,0,0c0,0,0-0.1,0-0.1c0,0,0-0.1,0-0.1
		c0,0,0-0.1,0-0.1c0,0,0-0.1,0-0.1c0,0,0-0.1,0-0.1c0,0,0-0.1,0-0.1c0,0,0-0.1,0-0.1c0,0,0-0.1,0-0.1c0,0,0-0.1,0-0.1
		c0,0,0-0.1,0-0.1c0,0,0,0,0,0c0,0,0-0.1,0-0.1c0,0,0-0.1-0.1-0.1c0,0,0-0.1-0.1-0.1c0,0,0-0.1-0.1-0.1c0,0-0.1-0.1-0.1-0.1
		c0,0,0,0,0,0l-7.7-7.7c-0.6-0.6-1.7-0.6-2.3,0c-0.6,0.6-0.6,1.7,0,2.3l4.9,4.9h-15.2c-0.6,0-1.1,0.3-1.4,0.7
		c-0.2,0.3-0.3,0.6-0.3,0.9c0,0.5,0.2,0.9,0.5,1.2c0.3,0.3,0.7,0.5,1.2,0.5l0,0h15.2l-4.9,4.9c-0.6,0.6-0.6,1.7,0,2.3
		c0.3,0.3,0.7,0.5,1.2,0.5c0.4,0,0.8-0.2,1.2-0.5l7.7-7.7c0,0,0,0,0-0.1C-149.5,591.8-149.4,591.8-149.3,591.6
		C-149.4,591.7-149.4,591.7-149.3,591.6z"/>
	<g>
		<path d="M-159.3,571.3c-10.7,0-19.4,8.7-19.4,19.4c0,10.7,8.7,19.4,19.4,19.4c10.7,0,19.4-8.7,19.4-19.4
			C-139.9,580-148.6,571.3-159.3,571.3z M-159.3,607.3c-9.1,0-16.6-7.4-16.6-16.6c0-9.1,7.4-16.6,16.6-16.6
			c9.1,0,16.6,7.4,16.6,16.6C-142.7,599.8-150.2,607.3-159.3,607.3z"/>
	</g>
</g>
<g>
	<path fill-rule="evenodd" clip-rule="evenodd" d="M-374.8,571.5c-3.3,0.2-4.5,3.5-5.9,5.8c-0.8,1.4-1.7,2.7-2.2,3.8
		c2.6,1.5,5.3,3,7.9,4.5c1.8-3.2,3.6-6.3,5.5-9.4C-370.5,573.8-371.7,571.4-374.8,571.5z M-370.5,573.5c1.5,2.4,3,5.6,4.3,8
		c-0.6,0.6-1.7,0.8-2.3,1.5c3.2,0,6.1,0.1,8.7,0.1c1.5-2.6,3-5.3,4.6-7.9c-1.1,0.4-1.8,1.2-2.9,1.6c-1-1.3-1.5-3.3-2.5-4.5
		c-0.7-0.9-3.1-0.8-4.8-0.8c-2.7,0-5.6,0.1-7.2,0.1C-371.7,572-371.1,572.7-370.5,573.5z M-353.3,597.1c0.7-1.2,2.6-3.6,2.7-5.1
		c0.1-1.2-0.6-1.8-1.1-2.7c-1.1-1.9-2.5-4.9-3.6-6.6c-2.6,1.5-5.2,3.1-7.9,4.6c1.1,2.2,2.3,4.2,3.6,6.5c1.4,2.5,3.2,5,3.5,8.3
		C-355.2,600.4-354.3,598.9-353.3,597.1z M-386.2,586.6c-0.7,1.9-2.9,3.6-2.7,5.7c0.1,1.2,0.9,2.2,1.5,3.2c1.2,2.3,2.7,5.1,3.9,7
		c-0.2-1,0.2-1.9,0.4-2.8c1.8-2.7,3.2-5.8,5-8.4c0.8,0.4,1.4,0.9,2.2,1.3c-1.2-2.5-2.7-5.1-4-7.8c-3,0-5.9,0-8.9,0
		C-388.1,585.6-386.9,585.8-386.2,586.6z M-368.9,602.1c1.4,2.7,2.8,5.4,4.4,7.9c0-1.1-0.1-2.4,0.1-3.6c4.6,0.6,7.8-1,8-4.8
		c0.1-1.8-0.9-3-1.6-4.4c-2.1-0.1-4.5,0.1-6.4-0.1c-0.1-0.9,0.1-2.1-0.1-2.8C-365.9,596.9-367.5,599.4-368.9,602.1z M-381.4,597.4
		c-1.3,1.8-2.6,4.5-1.4,6.8c1.9,3.4,7.5,2.2,11.8,2.2c0-4,0.1-5.2,0.1-9.1C-375.2,597.3-378.4,597.3-381.4,597.4z"/>
	<path fill-rule="evenodd" clip-rule="evenodd" d="M-369.4,576.2c-1.9,3.1-3.7,6.2-5.5,9.4c-2.6-1.5-5.2-3-7.9-4.5
		c0.5-1.1,1.4-2.5,2.2-3.8c1.4-2.3,2.5-5.6,5.9-5.8C-371.7,571.4-370.5,573.8-369.4,576.2z"/>
	<path fill-rule="evenodd" clip-rule="evenodd" d="M-372.7,571.6c1.6,0,4.6-0.1,7.2-0.1c1.7,0,4.1-0.1,4.8,0.8
		c1,1.2,1.4,3.2,2.5,4.5c1.1-0.4,1.8-1.2,2.9-1.6c-1.6,2.6-3.1,5.2-4.6,7.9c-2.6,0-5.5-0.1-8.7-0.1c0.6-0.6,1.6-0.9,2.3-1.5
		c-1.3-2.4-2.8-5.7-4.3-8C-371.1,572.7-371.7,572-372.7,571.6z"/>
	<path fill-rule="evenodd" clip-rule="evenodd" d="M-356.1,602.1c-0.3-3.3-2.1-5.8-3.5-8.3c-1.2-2.2-2.5-4.3-3.6-6.5
		c2.7-1.5,5.3-3,7.9-4.6c1.1,1.7,2.5,4.6,3.6,6.6c0.5,0.9,1.2,1.6,1.1,2.7c-0.1,1.5-2,3.9-2.7,5.1
		C-354.3,598.9-355.2,600.4-356.1,602.1z"/>
	<path fill-rule="evenodd" clip-rule="evenodd" d="M-388.8,584.8c3,0,5.9,0,8.9,0c1.4,2.7,2.8,5.2,4,7.8c-0.8-0.4-1.4-0.9-2.2-1.3
		c-1.8,2.6-3.3,5.7-5,8.4c-0.2,0.9-0.6,1.8-0.4,2.8c-1.2-1.9-2.7-4.7-3.9-7c-0.5-1-1.4-2-1.5-3.2c-0.2-2.1,2-3.8,2.7-5.7
		C-386.9,585.8-388.1,585.6-388.8,584.8z"/>
	<path fill-rule="evenodd" clip-rule="evenodd" d="M-364.5,594.2c0.2,0.8,0,1.9,0.1,2.8c2,0.2,4.3,0,6.4,0.1
		c0.6,1.4,1.6,2.5,1.6,4.4c-0.1,3.8-3.3,5.5-8,4.8c-0.2,1.1-0.1,2.5-0.1,3.6c-1.6-2.5-3-5.2-4.4-7.9
		C-367.5,599.4-365.9,596.9-364.5,594.2z"/>
	<path fill-rule="evenodd" clip-rule="evenodd" d="M-370.9,597.3c0,3.9-0.1,5-0.1,9.1c-4.3,0-9.9,1.2-11.8-2.2c-1.3-2.2,0-5,1.4-6.8
		C-378.4,597.3-375.2,597.3-370.9,597.3z"/>
</g>
<g>
	<path fill-rule="evenodd" clip-rule="evenodd" d="M-301,609.2c10.5,0.2,19.1-8.4,18.8-18.9c-0.2-5.4-2.5-9.8-5.6-12.8
		c-2.9-2.9-7.5-5.7-13.8-5.2c-8.6,0.7-13.6,5.5-16.2,12.4c7.4,0,14.7,0,22.1,0c0-1.5,0-4.1,0-6c3.2,2.7,6.1,6,9.2,9
		c0.4,0.4,3.1,2.6,3.1,3.1c0,0-1.1,1.1-1.5,1.5c-1.7,1.7-3.1,3-4.7,4.5c-2.2,2.2-4,4.4-6.1,5.9c0-1.9,0-4.4,0-5.9
		c-7.4,0-14.7,0-22.1,0C-315.2,604-309.3,609-301,609.2z"/>
	<path fill-rule="evenodd" clip-rule="evenodd" d="M-317.9,596.8c7.4,0,14.7,0,22.1,0c0,1.5,0,4,0,5.9c2.1-1.4,4-3.7,6.1-5.9
		c1.5-1.5,3-2.8,4.7-4.5c0.3-0.3,1.5-1.4,1.5-1.5c0-0.5-2.7-2.7-3.1-3.1c-3-3-6-6.3-9.2-9c0,1.9,0,4.5,0,6c-7.4,0-14.7,0-22.1,0
		c2.6-6.9,7.7-11.7,16.2-12.4c6.3-0.5,10.9,2.3,13.8,5.2c3.1,3,5.4,7.3,5.6,12.8c0.3,10.5-8.2,19.1-18.8,18.9
		C-309.3,609-315.2,604-317.9,596.8z"/>
</g>
<g>
	<path fill-rule="evenodd" clip-rule="evenodd" d="M-222.4,606.7c0,0-0.1,0-0.1,0c-0.9-2-2.1-3.6-3.1-5.6c-2.1,1.1-4.4,2-7.4,2.1
		c-7.8,0.1-13.2-5.7-14.2-13c0-0.9,0-1.7,0-2.6c0.6-9.1,11.3-16.2,20.5-11.4c-0.8,1.7-1.5,3.7-2.5,5.2c-5.6-2.6-11.6,0.9-12.1,6.4
		c-0.7,7.2,6.5,11.7,12.7,8.2c-0.8-2-2.4-3.9-3.1-5.8c6.2,0.1,12.7-0.1,18.7,0.1C-216.2,595.9-219.3,601.3-222.4,606.7z"/>
</g>
<g>
	<path d="M-556,656.3l-1-1c-0.2-0.2-0.4-0.3-0.7-0.3h-15v-0.6l0.8,0c0.3,0,0.5-0.1,0.7-0.3c0.2-0.2,0.3-0.4,0.3-0.7v-5
		c0-0.3-0.1-0.5-0.3-0.7c-0.2-0.2-0.4-0.3-0.7-0.3h-4.7c-0.3,0-0.5,0.1-0.7,0.3c-0.2,0.2-0.3,0.4-0.3,0.7v0.8l-0.1,0
		c-0.3,0-0.5,0.1-0.7,0.3c-0.2,0.2-0.3,0.4-0.3,0.7v0.6h-3.4c-0.3,0-0.5,0.1-0.7,0.3c-0.2,0.2-0.3,0.4-0.3,0.7v0.6h-2.1
		c-0.3,0-0.5,0.1-0.7,0.3c-0.2,0.2-0.3,0.4-0.3,0.7v0.6h-2.1c-0.3,0-0.5,0.1-0.7,0.3c-0.2,0.2-0.3,0.4-0.3,0.7v0.5h-2.7
		c-0.3,0-0.5,0.1-0.7,0.3c-0.2,0.2-0.3,0.4-0.3,0.7v13.9c0,0.4,0.2,0.8,0.6,0.9l3.2,1.2c0.1,0.2,0.3,0.4,0.6,0.4l4,1.2
		c0,0.1,0.1,0.1,0.1,0.2c0.2,0.2,0.4,0.3,0.7,0.3h10.1l0.3-0.1l3.1-1.1c0.2-0.1,0.4-0.2,0.5-0.4l1.1-1.8c0.1,0,0.2,0.1,0.4,0.1
		c0.2,0,0.5-0.1,0.7-0.3l1.2-1.2c0.2-0.2,0.3-0.4,0.3-0.7v-2.2c0,0,0.1,0,0.1,0c0.2,0,0.5-0.1,0.7-0.3l1.3-1.3
		c0.2-0.2,0.3-0.4,0.3-0.7v-2.4h5.9c0.3,0,0.5-0.1,0.7-0.3l1.1-1.1c0.2-0.2,0.3-0.4,0.3-0.7V657C-555.8,656.7-555.9,656.5-556,656.3
		z M-557.7,659.7l-0.6,0.6h-14.3c-0.5,0-1,0.4-1,1c0,0.5,0.4,1,1,1h6.9v2l-0.7,0.7c0,0,0,0,0,0c-0.2-0.2-0.4-0.3-0.7-0.3h-4.6
		c-0.5,0-1,0.4-1,1c0,0.5,0.4,1,1,1h3.6v2.1l-0.4,0.4c-0.1-0.1-0.3-0.1-0.5-0.1h-5.4c-0.5,0-1,0.4-1,1c0,0.5,0.4,1,1,1h3.6l-0.4,0.7
		l-2.6,0.9h-9.3c-0.1-0.1-0.2-0.2-0.4-0.2l-4-1.2c-0.1-0.2-0.3-0.3-0.5-0.4l-3-1.1v-12.3h2.7c0.3,0,0.5-0.1,0.7-0.3
		c0.2-0.2,0.3-0.4,0.3-0.7v-0.5h2.1c0.3,0,0.5-0.1,0.7-0.3c0.2-0.2,0.3-0.4,0.3-0.7v-0.6h2.1c0.3,0,0.5-0.1,0.7-0.3
		c0.2-0.2,0.3-0.4,0.3-0.7v-0.6h3.4c0.3,0,0.5-0.1,0.7-0.3c0.2-0.2,0.3-0.4,0.3-0.7V651h0.1c0.3,0,0.5-0.1,0.7-0.3
		c0.2-0.2,0.3-0.4,0.3-0.7v-0.8h2.7v3.1h-0.8c-0.3,0-0.5,0.1-0.7,0.3c-0.2,0.2-0.3,0.4-0.3,0.7v1.6h-3.8c-0.3,0-0.5,0.1-0.7,0.3
		c-0.2,0.2-0.3,0.4-0.3,0.7c0,0.3,0.1,0.5,0.3,0.7c0.2,0.2,0.4,0.3,0.7,0.3h4.8h15.5l0.5,0.5V659.7z"/>
</g>
<g>
	<circle cx="-142" cy="660.9" r="2"/>
	<circle cx="-146.6" cy="656.3" r="2"/>
	<circle cx="-151.2" cy="651.7" r="2"/>
	<circle cx="-155.8" cy="647.1" r="2"/>
	<circle cx="-146.6" cy="665.5" r="2"/>
	<circle cx="-151.2" cy="670.1" r="2"/>
	<circle cx="-155.8" cy="674.7" r="2"/>
	<circle cx="-150.5" cy="660.9" r="2"/>
	<circle cx="-157" cy="660.9" r="2"/>
	<circle cx="-163.6" cy="660.9" r="2"/>
	<circle cx="-170.1" cy="660.9" r="2"/>
	<circle cx="-176.6" cy="660.9" r="2"/>
</g>
<g>
	<line x1="-610" y1="131.9" x2="-610" y2="711.9"/>
	<line x1="-541" y1="131.9" x2="-541" y2="711.9"/>
	<line x1="-472" y1="131.9" x2="-472" y2="711.9"/>
	<line x1="-403" y1="131.9" x2="-403" y2="711.9"/>
	<line x1="-334" y1="131.9" x2="-334" y2="711.9"/>
	<line x1="-264.9" y1="131.9" x2="-264.9" y2="711.9"/>
	<line x1="-195.9" y1="131.9" x2="-195.9" y2="711.9"/>
	<line x1="-126.9" y1="131.9" x2="-126.9" y2="711.9"/>
	<line x1="-112.4" y1="143.9" x2="-624.4" y2="143.9"/>
	<line x1="-112.4" y1="212.9" x2="-624.4" y2="212.9"/>
	<line x1="-112.4" y1="281.9" x2="-624.4" y2="281.9"/>
	<line x1="-112.4" y1="350.9" x2="-624.4" y2="350.9"/>
	<line x1="-112.4" y1="419.9" x2="-624.4" y2="419.9"/>
	<line x1="-112.4" y1="489" x2="-624.4" y2="489"/>
	<line x1="-112.4" y1="558" x2="-624.4" y2="558"/>
	<line x1="-112.4" y1="627" x2="-624.4" y2="627"/>
	<line x1="-112.4" y1="696" x2="-624.4" y2="696"/>
</g>
</svg>
